# xmcd
#
# Track frame offsets:
#	150
#	12299
#	28682
#	56041
#	69677
#	82500
#	96756
#	109995
#	121869
#	133376
#	145500
#
# Disc length: 2137 seconds
#
# Revision: 1
# Processed by: cddbd v1.5.2PL0 Copyright (c) Steve Scherf et al.
# Submitted via: audiograbber 1.83.01
#
DISCID=9008570b
DTITLE=Carolina - Let's Have A Party
DYEAR=2002
DGENRE=County
TTITLE0=Let's Have A Party
TTITLE1=That Don't Impress Me MatchTrack  2
TTITLE2=Sultans Of Swing
TTITLE3=Baby Come Back
TTITLE4=The Wanderer
TTITLE5=Stray Cat Strut
TTITLE6=Oh, Lonesome You
TTITLE7=Route 66
TTITLE8=I Want To Be A Cowboys Sweetheart
TTITLE9=It's So Easy
TTITLE10=Boot Scootin'  Boogie
EXTD=
EXTT0=
EXTT1=
EXTT2=
EXTT3=
EXTT4=
EXTT5=
EXTT6=
EXTT7=
EXTT8=
EXTT9=
EXTT10=
PLAYORDER=
